<?xml version="1.0" encoding="UTF-8"?> <svg xmlns="http://www.w3.org/2000/svg" id="Livello_2" viewBox="0 0 675.97 215.28"><defs><style> .cls-1 { fill: #fff; } .cls-2 { fill: #a48956; } </style></defs><g id="Capa_2"><g id="Capa_1-2"><path class="cls-1" d="M241.81,87.37h13.71v12.13c0,1.14-.61,1.67-2.28,1.14l-9.06-2.81v.62l7.56,3.52c2.46,1.14,3.78,2.81,3.78,6.51v36.93h-13.71v-58.03h0Z"></path><polygon class="cls-1" points="259.47 87.37 277.85 87.37 284.53 124.12 285.23 124.12 285.23 87.37 299.04 87.37 299.04 145.4 280.66 145.4 273.98 111.29 273.19 111.29 273.19 145.4 259.47 145.4 259.47 87.37"></polygon><polygon class="cls-1" points="311.51 99.68 302.99 99.68 302.99 87.37 333.93 87.37 333.93 99.68 325.32 99.68 325.32 145.4 311.51 145.4 311.51 99.68"></polygon><polygon class="cls-1" points="337.88 87.37 366.99 87.37 366.99 99.68 351.6 99.68 351.6 110.76 364.44 110.76 364.44 121.84 351.6 121.84 351.6 133.09 366.99 133.09 366.99 145.4 337.88 145.4 337.88 87.37"></polygon><path class="cls-1" d="M387.91,114.28c3.43,0,4.13-1.85,4.13-8.09,0-5.54-.53-8.26-3.96-8.26h-3.43v16.35h3.26ZM370.94,87.37h19.52c11.34,0,16.09,5.71,16.18,15.83.09,8.88-2.73,14.59-12.22,15.12l-.09.53c10.29,0,11.43,4.57,11.43,12.31v14.24h-13.8v-16c0-4.13-.79-6.24-3.96-6.24h-3.34v22.24h-13.71v-58.03h-.01Z"></path><path class="cls-1" d="M427.55,114.28c3.43,0,4.13-1.85,4.13-8.09,0-5.54-.53-8.26-3.96-8.26h-3.43v16.35h3.26ZM410.58,87.37h19.52c11.34,0,16.09,5.71,16.18,15.83.09,8.88-2.73,14.59-12.22,15.12l-.09.53c10.29,0,11.43,4.57,11.43,12.31v14.24h-13.8v-16c0-4.13-.79-6.24-3.96-6.24h-3.34v22.24h-13.71v-58.03h-.01Z"></path><path class="cls-1" d="M468.25,135.82c2.46,0,4.05-1.32,4.05-4.13v-30.51c0-2.73-1.58-4.13-4.05-4.13s-4.22,1.41-4.22,4.13v30.42c0,2.73,1.67,4.22,4.22,4.22M450.23,129.66v-26.55c0-10.02,8-16.62,18.29-16.62s17.58,6.59,17.58,16.62v26.55c0,10.02-7.56,16.62-17.58,16.62s-18.29-6.59-18.29-16.62"></path><path class="cls-1" d="M490.05,129.66v-26.55c0-9.93,8.26-16.62,18.29-16.62s17.32,6.68,17.32,16.62v7.65h-13.72v-9.85c0-2.46-1.76-3.87-3.87-3.87s-4.13,1.41-4.13,3.87v30.86c0,2.46,1.85,4.04,4.04,4.04s3.87-1.41,3.87-3.96v-8.88l-5.54-.88,1.41-10.11,17.93,2.37v15.3c0,9.93-7.74,16.62-17.32,16.62s-18.29-6.68-18.29-16.62"></path><path class="cls-1" d="M548.33,123.77l-2.2-21.98h-1.06l-1.93,21.98s5.19,0,5.19,0ZM536.02,87.37h19.69l8.79,58.03h-14.16l-1.67-11.96h-6.24l-1.32,11.96h-14.15s9.06-58.03,9.06-58.03Z"></path><polygon class="cls-1" points="568.46 87.37 586.83 87.37 593.51 124.12 594.22 124.12 594.22 87.37 608.02 87.37 608.02 145.4 589.65 145.4 582.96 111.29 582.17 111.29 582.17 145.4 568.46 145.4 568.46 87.37"></polygon><polygon class="cls-1" points="620.5 99.68 611.97 99.68 611.97 87.37 642.92 87.37 642.92 99.68 634.3 99.68 634.3 145.4 620.5 145.4 620.5 99.68"></polygon><polygon class="cls-1" points="646.87 87.37 646.87 145.4 675.97 145.4 675.97 133.09 660.58 133.09 660.58 121.84 673.42 121.84 673.42 110.76 660.58 110.76 660.58 99.68 675.97 99.68 675.97 87.37 646.87 87.37"></polygon><path class="cls-1" d="M248.62,196.55c-1.64-1.09-2.67-1.94-3.58-1.94s-1.52.91-1.64,4.92h-.61l-.24-17.72h.61c.49,7.04,4.43,16.99,14.39,16.99,2.67,0,5.71-.55,7.77-2.61,1.52-1.46,2.19-3.46,2.19-5.71,0-5.58-5.28-8.07-11.84-10.68-5.65-2.25-12.57-4.92-12.57-12.44,0-3.22,1.28-5.89,3.28-7.83,2.43-2.36,6.01-3.58,9.89-3.58s6.62,1.64,8.13,2.79c1.82,1.33,2.67,2.18,3.4,2.18.85,0,1.4-.85,1.46-4.98h.61l.24,16.87h-.61c-.49-6.49-3.94-16.15-13.23-16.15-2.61,0-4.92.61-6.49,1.94-1.52,1.21-2.31,2.91-2.31,5.04,0,4.98,4.43,6.98,10.56,9.47,7.04,2.85,13.54,5.46,13.54,13.6,0,3.7-1.28,6.86-3.82,9.11-2.37,2.24-5.59,3.7-10.2,3.7-4.31,0-7.1-1.7-8.92-2.98"></path><path class="cls-1" d="M299.13,183.25c0-7.34-.79-13.9-6.44-13.9-3.34,0-6.43,2.37-8.25,8.68l-.06,11.35c0,4.92,2.67,9.17,7.22,9.17,3.76,0,7.53-2.43,7.53-15.3M305.51,183.19c0,8.74-4.37,16.39-12.75,16.39-4.37,0-7.16-2.37-8.38-6.13l.06,11.65c0,3.76,0,4.98,4.43,4.98v.61h-13.6v-.61c3.22-.06,3.22-1.4,3.22-5.16v-30.41c0-2.73,0-4.8-3.52-5.16v-.61h9.47l-.06,7.65c1.94-5.89,5.4-8.26,9.77-8.26,7.04,0,11.35,6.37,11.35,15.05"></path><path class="cls-1" d="M315.77,182.22h12.87c-.06-8.56-1.33-13.35-6.07-13.35s-6.56,3.88-6.8,13.35M334.89,188.59c-.12,5.71-3.7,10.99-11.71,10.99-7.41,0-13.78-6.25-13.78-15.72s5.77-15.72,13.17-15.72c7.89,0,12.26,5.58,12.26,14.75h-19.06v.97c0,9.04,2.61,14.69,8.92,14.69,5.89,0,9.47-4.43,9.59-9.96h.61,0Z"></path><path class="cls-1" d="M344.3,192.6c-.37,1.34-.67,2.85-.67,3.82,0,1.4.61,2.18,1.7,2.18,2.61,0,5.52-4.67,7.71-10.62l.55.24c-2.37,6.07-5.04,11.35-9.65,11.35-2.79,0-4.79-2.61-4.79-5.52,0-2.49,2.18-8.01,3.82-13.66l3.16-10.93-3.88-.12.18-.61,4-.12c2.55-3.03,4.86-6.62,6.62-10.38l1.64-.61-3.28,11.11,5.77-.12-.24.85-5.71-.12-6.92,23.25h0Z"></path><path class="cls-1" d="M362.09,192.6c-.37,1.34-.67,2.85-.67,3.82,0,1.4.61,2.18,1.7,2.18,2.61,0,5.52-4.67,7.71-10.62l.55.24c-2.37,6.07-5.04,11.35-9.65,11.35-2.79,0-4.79-2.61-4.79-5.52,0-2.49,2.18-8.01,3.82-13.66l3.16-10.93-3.88-.12.18-.61,4-.12c2.55-3.03,4.86-6.62,6.62-10.38l1.64-.61-3.28,11.11,5.77-.12-.24.85-5.71-.12-6.92,23.25h0Z"></path><path class="cls-1" d="M392.38,188.29v-7.1c-5.16,1.22-9.77,2.73-11.47,5.4-.73,1.16-.85,2.61-.85,4.25s.12,2.79.73,4.01c.61,1.27,1.76,2.19,3.82,2.19,4.13,0,7.28-4.25,7.77-8.74M402.34,187.75v5.34c0,2.25-.24,3.52-.97,4.55-.73.91-2.06,1.88-4.19,1.88-2,0-3.16-.85-3.76-1.76-.67-.91-1.03-2.12-1.03-4.67v-2c-.73,2.31-3.46,8.5-10.26,8.5-2.67,0-4.61-.73-6.07-2.25-1.4-1.4-2-3.46-2-5.65,0-2.37.73-3.94,2-5.22,2.98-2.91,10.2-4.61,16.33-5.83v-4.37c0-6.19-2.97-7.47-5.89-7.47-2.37,0-4.19.73-5.34,2-.43.49-.61.97-.61,1.7,0,1.4.79,3.46,2.67,5.77-.54,1.27-2,2.25-3.58,2.25-2.25,0-3.7-2.31-3.7-4.8,0-3.76,3.94-7.59,10.93-7.59,6.43,0,11.35,2.61,11.35,9.47v15.54c0,1.28.06,2.31.3,3.03.24.55.67,1.03,1.4,1.03.79,0,1.21-.55,1.46-1.03.3-.61.37-1.64.37-3.09v-5.34h.61-.02Z"></path><path class="cls-1" d="M430.21,188.59h.61c-.37,5.71-3.94,10.93-11.41,10.93s-13.78-6.19-13.78-15.66,5.95-15.66,14.45-15.66c6.25,0,10.38,4.07,10.38,8.38,0,2.91-1.76,5.4-3.94,5.4-1.58,0-2.79-.91-3.34-2.19,1.88-2.37,3.16-4.98,3.16-6.8,0-.67-.24-1.4-.67-1.94-1.28-1.52-3.16-2.18-5.22-2.18-6.25,0-8.44,6.49-8.44,14.99s2.31,14.63,8.92,14.63c5.53,0,8.86-4.37,9.29-9.9"></path><path class="cls-1" d="M455.7,183.86c0-10.02-2.67-14.99-7.53-14.99s-7.47,4.98-7.47,14.99,2.67,14.99,7.47,14.99,7.53-4.98,7.53-14.99M434.34,183.86c0-9.65,6.86-15.72,13.84-15.72s13.9,6.07,13.9,15.72-6.8,15.72-13.9,15.72-13.84-6.07-13.84-15.72"></path><path class="cls-1" d="M465.42,198.98v-.61c3.04,0,3.04-.97,3.04-5.16v-31.38c0-2.73,0-4.55-3.52-4.73v-.61h9.41v36.72c0,4.19.06,5.16,3.03,5.16v.61h-11.96Z"></path><path class="cls-1" d="M502.03,183.86c0-10.02-2.67-14.99-7.53-14.99s-7.47,4.98-7.47,14.99,2.67,14.99,7.47,14.99,7.53-4.98,7.53-14.99M480.66,183.86c0-9.65,6.86-15.72,13.84-15.72s13.9,6.07,13.9,15.72-6.8,15.72-13.9,15.72-13.84-6.07-13.84-15.72"></path><path class="cls-2" d="M65.82,187.62c.22-23.06,36.01-28.86,36.18-46.71l.05-4.88,4.4.04-.07,7.35c-.19,20.02-23.63,31-23.78,45.9-.12,12.53,9.2,21.02,19.75,21.12,9.12.09,20.08-10.53,15.01-14.76-5.88-4.92-4.07-15.75,4.77-15.67,18.52.18,6.68,35.56-22.87,35.27-25.08-.24-33.56-15.24-33.44-27.65"></path><path class="cls-2" d="M90.83,107.95c.05-4.64,3.85-8.37,8.49-8.32s8.37,3.85,8.32,8.49-3.85,8.37-8.49,8.32-8.37-3.85-8.32-8.49"></path><path class="cls-2" d="M13.26,118.7c20.08-11.33,43,16.76,58.54,7.98l4.25-2.4,2.16,3.83-6.4,3.61c-17.43,9.84-38.66-4.97-51.64,2.36-10.92,6.16-13.6,18.48-8.41,27.66,4.48,7.94,19.16,12.12,20.29,5.61,1.32-7.55,11.61-11.4,15.95-3.7,9.11,16.13-27.45,23.57-41.98-2.17-12.33-21.85-3.58-36.68,7.23-42.79"></path><path class="cls-2" d="M46.66,38.72c19.85,11.72,6.99,45.61,22.36,54.69l4.21,2.48-2.24,3.79-6.33-3.74c-17.24-10.18-15.03-35.97-27.86-43.54-10.79-6.37-22.8-2.54-28.16,6.54-4.64,7.85-.92,22.66,5.28,20.38,7.2-2.63,15.68,4.36,11.18,11.97-9.42,15.95-34.13-12-19.11-37.44,12.75-21.6,29.98-21.44,40.67-15.13"></path><path class="cls-2" d="M132.62,27.66c-.22,23.06-36.01,28.86-36.18,46.71l-.05,4.88-4.4-.04.07-7.35c.19-20.02,23.64-31,23.78-45.9.12-12.53-9.2-21.02-19.75-21.12-9.12-.09-20.08,10.53-15.01,14.76,5.88,4.92,4.07,15.75-4.77,15.67C57.79,35.09,69.63-.28,99.18,0c25.09.24,33.56,15.24,33.44,27.65"></path><path class="cls-2" d="M185.18,96.57c-20.08,11.33-43-16.76-58.54-7.98l-4.25,2.4-2.16-3.83,6.4-3.61c17.43-9.84,38.66,4.97,51.64-2.36,10.92-6.16,13.6-18.48,8.41-27.66-4.48-7.94-19.16-12.12-20.29-5.61-1.32,7.55-11.61,11.4-15.95,3.7-9.11-16.13,27.45-23.57,41.98,2.17,12.33,21.85,3.58,36.68-7.23,42.79"></path><path class="cls-2" d="M151.79,176.55c-19.85-11.72-6.99-45.61-22.36-54.69l-4.21-2.48,2.24-3.79,6.33,3.74c17.24,10.18,15.03,35.97,27.86,43.54,10.79,6.37,22.8,2.54,28.16-6.54,4.64-7.85.92-22.66-5.28-20.38-7.2,2.63-15.68-4.36-11.18-11.97,9.42-15.95,34.13,12,19.11,37.44-12.76,21.6-29.98,21.44-40.67,15.13"></path><path class="cls-2" d="M246.33,7.76l-2.03,7.34h4.08l-2.05-7.34ZM249.61,19.76l-.81-2.92h-4.91l-.81,2.92h-2.05l4.13-13.83h2.36l4.14,13.83h-2.05Z"></path><path class="cls-2" d="M257.39,7.67h-2.26v4.98h2.26c1.33,0,2.15-1.02,2.15-2.49s-.83-2.49-2.15-2.49M259.48,19.76l-2.51-5.37h-1.85v5.37h-1.97V5.93h4.5c2.3,0,3.92,1.66,3.92,4.21s-1.37,3.63-2.67,3.92l2.8,5.7h-2.22,0Z"></path><polygon class="cls-2" points="266.08 19.76 266.08 7.67 262.87 7.67 262.87 5.93 271.28 5.93 271.28 7.67 268.05 7.67 268.05 19.76 266.08 19.76"></polygon><polygon class="cls-2" points="273.18 19.76 273.18 5.93 280.51 5.93 280.51 7.67 275.14 7.67 275.14 11.84 280.37 11.84 280.37 13.58 275.14 13.58 275.14 18.02 280.51 18.02 280.51 19.76 273.18 19.76"></polygon><polygon class="cls-2" points="242.31 40.5 242.31 26.67 249.65 26.67 249.65 28.41 244.28 28.41 244.28 32.58 249.51 32.58 249.51 34.32 244.28 34.32 244.28 38.76 249.65 38.76 249.65 40.5 242.31 40.5"></polygon><path class="cls-2" d="M253.95,38.76h1.93c2.42,0,3.67-2.2,3.67-5.16s-1.22-5.18-3.67-5.18h-1.93v10.34h0ZM251.98,40.5v-13.83h3.9c3.65,0,5.7,2.94,5.7,6.92s-2.03,6.9-5.68,6.9h-3.92Z"></path><path class="cls-2" d="M263.86,26.67h1.97v9.29c0,1.99.97,3.04,2.65,3.04s2.65-1.06,2.65-3.04v-9.29h1.97v9.26c0,3.09-1.74,4.81-4.62,4.81s-4.62-1.72-4.62-4.81v-9.26Z"></path><path class="cls-2" d="M275.39,33.6c0-4.15,2.12-7.15,5.45-7.15,2.3,0,3.52,1.39,4.27,2.88l-1.64.75c-.54-1.12-1.41-1.87-2.63-1.87-2.09,0-3.44,2.28-3.44,5.39s1.35,5.39,3.44,5.39c1.28,0,2.15-.87,2.63-2.03l1.66.75c-.74,1.57-1.95,3.05-4.29,3.05-3.34,0-5.45-3.01-5.45-7.15"></path><path class="cls-2" d="M291.07,28.5l-2.03,7.34h4.08l-2.05-7.34ZM294.35,40.5l-.81-2.92h-4.91l-.81,2.92h-2.05l4.13-13.83h2.36l4.14,13.83h-2.05Z"></path><path class="cls-2" d="M296.98,33.6c0-4.15,2.12-7.15,5.45-7.15,2.3,0,3.52,1.39,4.27,2.88l-1.64.75c-.54-1.12-1.41-1.87-2.63-1.87-2.09,0-3.44,2.28-3.44,5.39s1.35,5.39,3.44,5.39c1.28,0,2.15-.87,2.63-2.03l1.66.75c-.74,1.57-1.95,3.05-4.29,3.05-3.34,0-5.45-3.01-5.45-7.15"></path><rect class="cls-2" x="308.68" y="26.67" width="1.97" height="13.83"></rect><path class="cls-2" d="M318.88,25.51h-1.24l2.3-2.99h1.72l-2.78,2.99ZM318.3,28.21c-2.18,0-3.36,2.34-3.36,5.39s1.18,5.39,3.36,5.39,3.38-2.39,3.38-5.39-1.2-5.39-3.38-5.39M318.3,26.44c3.44,0,5.41,3.11,5.41,7.15s-1.97,7.15-5.41,7.15-5.37-3.11-5.37-7.15,1.95-7.15,5.37-7.15"></path><polygon class="cls-2" points="333.4 40.5 327.97 30.38 327.97 40.5 326 40.5 326 26.67 327.99 26.67 333.32 36.48 333.32 26.67 335.29 26.67 335.29 40.5 333.4 40.5"></polygon><path class="cls-2" d="M241.82,54.34c0-4.15,2.12-7.15,5.45-7.15,2.3,0,3.52,1.39,4.27,2.88l-1.64.75c-.54-1.12-1.41-1.87-2.63-1.87-2.09,0-3.44,2.28-3.44,5.39s1.35,5.39,3.44,5.39c1.28,0,2.15-.87,2.63-2.03l1.66.75c-.74,1.57-1.95,3.05-4.29,3.05-3.34,0-5.45-3.01-5.45-7.15"></path><path class="cls-2" d="M253.51,47.41h1.97v9.29c0,1.99.97,3.04,2.65,3.04s2.65-1.06,2.65-3.04v-9.29h1.97v9.26c0,3.09-1.74,4.81-4.62,4.81s-4.62-1.72-4.62-4.81c0,0,0-9.26,0-9.26Z"></path><polygon class="cls-2" points="265.54 61.24 265.54 47.41 267.51 47.41 267.51 59.5 272.43 59.5 272.43 61.24 265.54 61.24"></polygon><polygon class="cls-2" points="275.31 61.24 275.31 49.15 272.1 49.15 272.1 47.41 280.51 47.41 280.51 49.15 277.28 49.15 277.28 61.24 275.31 61.24"></polygon><path class="cls-2" d="M282.41,47.41h1.97v9.29c0,1.99.97,3.04,2.65,3.04s2.65-1.06,2.65-3.04v-9.29h1.97v9.26c0,3.09-1.74,4.81-4.62,4.81s-4.62-1.72-4.62-4.81c0,0,0-9.26,0-9.26Z"></path><path class="cls-2" d="M298.66,49.15h-2.26v4.98h2.26c1.33,0,2.15-1.02,2.15-2.49s-.83-2.49-2.15-2.49M300.76,61.24l-2.51-5.37h-1.85v5.37h-1.97v-13.83h4.5c2.3,0,3.92,1.66,3.92,4.21s-1.37,3.63-2.67,3.92l2.8,5.7h-2.22,0Z"></path><path class="cls-2" d="M309.26,49.24l-2.03,7.34h4.08l-2.05-7.34ZM312.54,61.24l-.81-2.92h-4.91l-.81,2.92h-2.05l4.13-13.83h2.36l4.14,13.83h-2.05Z"></path></g></g></svg> 